<svg width="241" height="78" viewBox="0 0 241 78" fill="none" xmlns="http://www.w3.org/2000/svg">
<ellipse cx="14.2785" cy="8.45316" rx="14.2785" ry="8.45316" transform="matrix(-0.77313 -0.634248 -0.634248 0.77313 232.771 32.6389)" fill="#F3BD13"/>
<ellipse cx="178.305" cy="30.1182" rx="14.2785" ry="8.45316" transform="rotate(-39.3642 178.305 30.1182)" fill="#F3BD13"/>
<g filter="url(#filter0_d_14_107)">
<path d="M204.849 15.2458C206.561 12.0913 210.382 10.7436 213.694 12.1262L218.269 14.0361C221.581 15.4187 223.31 19.0831 222.271 22.5183L218.406 35.2945C217.206 39.262 212.839 41.3221 209.014 39.7253L201.937 36.7712C198.112 35.1744 196.506 30.621 198.483 26.9778L204.849 15.2458Z" fill="#F3BD13"/>
</g>
<g filter="url(#filter1_d_14_107)">
<path d="M189.827 15.2458C188.115 12.0913 184.294 10.7436 180.982 12.1262L176.407 14.0361C173.095 15.4187 171.366 19.0831 172.406 22.5183L176.27 35.2945C177.47 39.262 181.837 41.3221 185.662 39.7253L192.739 36.7712C196.564 35.1744 198.17 30.621 196.193 26.9778L189.827 15.2458Z" fill="#F3BD13"/>
</g>
<g filter="url(#filter2_d_14_107)">
<path d="M185.974 12.7597C185.574 8.64707 188.806 5.08496 192.938 5.08496H201.77C205.902 5.08496 209.134 8.64707 208.733 12.7597L206.598 34.682C206.249 38.2664 203.236 41.0002 199.635 41.0002H195.073C191.472 41.0002 188.459 38.2664 188.109 34.682L185.974 12.7597Z" fill="#F3BD13"/>
</g>
<path d="M184.281 20.8071C184.281 19.7823 185.111 18.9515 186.136 18.9515H190.304C191.329 18.9515 192.159 19.7823 192.159 20.8071V23.0531C192.159 25.2287 190.396 26.9925 188.22 26.9925V26.9925C186.044 26.9925 184.281 25.2287 184.281 23.0531V20.8071Z" fill="#FFEDB2"/>
<path d="M202.559 20.8071C202.559 19.7823 203.39 18.9515 204.415 18.9515H208.582C209.607 18.9515 210.438 19.7823 210.438 20.8071V23.0531C210.438 25.2287 208.674 26.9925 206.499 26.9925V26.9925C204.323 26.9925 202.559 25.2287 202.559 23.0531V20.8071Z" fill="#FFEDB2"/>
<path d="M230.85 66.67C230.75 65.87 230.81 65.17 231.03 64.57C231.27 63.97 231.6 63.43 232.02 62.95C232.46 62.47 232.94 62.03 233.46 61.63C234 61.23 234.5 60.84 234.96 60.46C235.44 60.08 235.83 59.69 236.13 59.29C236.43 58.89 236.58 58.45 236.58 57.97C236.58 57.37 236.43 56.86 236.13 56.44C235.83 56.02 235.39 55.7 234.81 55.48C234.25 55.26 233.57 55.15 232.77 55.15C231.85 55.15 231.01 55.35 230.25 55.75C229.49 56.15 228.74 56.74 228 57.52L225.54 55.24C226.5 54.14 227.63 53.26 228.93 52.6C230.25 51.92 231.7 51.58 233.28 51.58C234.74 51.58 236.03 51.8 237.15 52.24C238.29 52.68 239.18 53.35 239.82 54.25C240.48 55.13 240.81 56.24 240.81 57.58C240.81 58.32 240.65 58.97 240.33 59.53C240.03 60.07 239.63 60.56 239.13 61C238.65 61.42 238.14 61.83 237.6 62.23C237.06 62.61 236.56 63.01 236.1 63.43C235.64 63.85 235.28 64.32 235.02 64.84C234.76 65.36 234.66 65.97 234.72 66.67H230.85ZM232.8 74.65C232.04 74.65 231.41 74.4 230.91 73.9C230.41 73.4 230.16 72.77 230.16 72.01C230.16 71.23 230.41 70.59 230.91 70.09C231.41 69.59 232.04 69.34 232.8 69.34C233.56 69.34 234.19 69.59 234.69 70.09C235.19 70.59 235.44 71.23 235.44 72.01C235.44 72.77 235.19 73.4 234.69 73.9C234.19 74.4 233.56 74.65 232.8 74.65Z" fill="#B65A0F"/>
<path d="M195.57 48.73L199.26 49.84C198.6 51.36 197.8 52.85 196.86 54.31C195.94 55.77 194.94 57.13 193.86 58.39C192.78 59.63 191.7 60.7 190.62 61.6C190.4 61.36 190.11 61.07 189.75 60.73C189.41 60.39 189.05 60.05 188.67 59.71C188.29 59.35 187.96 59.08 187.68 58.9C188.76 58.1 189.8 57.17 190.8 56.11C191.8 55.05 192.7 53.89 193.5 52.63C194.32 51.35 195.01 50.05 195.57 48.73ZM195.48 52.81H211.35V56.2H193.77L195.48 52.81ZM210 52.81H213.66C213.66 52.81 213.66 52.91 213.66 53.11C213.66 53.29 213.66 53.5 213.66 53.74C213.66 53.96 213.65 54.15 213.63 54.31C213.55 56.67 213.47 58.69 213.39 60.37C213.33 62.03 213.24 63.41 213.12 64.51C213.02 65.61 212.9 66.48 212.76 67.12C212.62 67.74 212.44 68.19 212.22 68.47C211.92 68.93 211.59 69.26 211.23 69.46C210.87 69.64 210.47 69.77 210.03 69.85C209.63 69.91 209.12 69.95 208.5 69.97C207.9 69.99 207.25 69.99 206.55 69.97C206.53 69.45 206.43 68.87 206.25 68.23C206.09 67.59 205.87 67.04 205.59 66.58C206.11 66.62 206.58 66.65 207 66.67C207.44 66.69 207.79 66.69 208.05 66.67C208.27 66.69 208.45 66.67 208.59 66.61C208.73 66.53 208.87 66.4 209.01 66.22C209.15 66.04 209.27 65.69 209.37 65.17C209.47 64.63 209.56 63.88 209.64 62.92C209.72 61.94 209.79 60.68 209.85 59.14C209.91 57.58 209.96 55.7 210 53.5V52.81ZM192.6 58.36H196.14V71.11C196.14 71.67 196.22 72.1 196.38 72.4C196.56 72.68 196.91 72.87 197.43 72.97C197.95 73.05 198.73 73.09 199.77 73.09C200.01 73.09 200.37 73.09 200.85 73.09C201.33 73.09 201.88 73.09 202.5 73.09C203.12 73.09 203.77 73.09 204.45 73.09C205.13 73.09 205.79 73.09 206.43 73.09C207.07 73.09 207.64 73.09 208.14 73.09C208.66 73.09 209.06 73.09 209.34 73.09C210.18 73.09 210.81 73.01 211.23 72.85C211.67 72.67 211.98 72.34 212.16 71.86C212.34 71.38 212.49 70.67 212.61 69.73C213.05 70.01 213.61 70.27 214.29 70.51C214.97 70.75 215.56 70.91 216.06 70.99C215.88 72.39 215.57 73.49 215.13 74.29C214.71 75.09 214.07 75.65 213.21 75.97C212.35 76.29 211.15 76.45 209.61 76.45C209.39 76.45 209.02 76.45 208.5 76.45C207.98 76.45 207.38 76.45 206.7 76.45C206.04 76.45 205.35 76.45 204.63 76.45C203.91 76.45 203.21 76.45 202.53 76.45C201.87 76.45 201.29 76.45 200.79 76.45C200.31 76.45 199.96 76.45 199.74 76.45C197.9 76.45 196.46 76.3 195.42 76C194.38 75.7 193.65 75.16 193.23 74.38C192.81 73.62 192.6 72.54 192.6 71.14V58.36ZM193.62 58.36H205.38V68.05H193.62V64.87H201.84V61.54H193.62V58.36Z" fill="#B65A0F"/>
<path d="M169.98 50.2H184.32V52.93H169.98V50.2ZM175.29 59.8H179.01V62.05H175.29V59.8ZM175.29 64.36H179.01V66.61H175.29V64.36ZM172.35 68.92H182.52V71.47H172.35V68.92ZM174.48 56.92H176.46V70H174.48V56.92ZM177.87 56.92H179.85V70.03H177.87V56.92ZM175.65 51.4L179.22 51.55C179.02 52.49 178.79 53.42 178.53 54.34C178.29 55.26 178.06 56.05 177.84 56.71L175.17 56.38C175.25 55.88 175.32 55.34 175.38 54.76C175.46 54.18 175.52 53.6 175.56 53.02C175.6 52.42 175.63 51.88 175.65 51.4ZM170.52 55.06H183.99V72.37H181.26V57.58H173.16V72.4H170.52V55.06ZM157.11 51.19H169.59V53.77H157.11V51.19ZM159.39 64.36C160.05 66.38 160.87 68 161.85 69.22C162.83 70.44 163.96 71.37 165.24 72.01C166.54 72.63 167.96 73.05 169.5 73.27C171.06 73.49 172.75 73.6 174.57 73.6C174.91 73.6 175.41 73.6 176.07 73.6C176.75 73.6 177.51 73.6 178.35 73.6C179.21 73.6 180.07 73.6 180.93 73.6C181.81 73.58 182.61 73.57 183.33 73.57C184.07 73.57 184.64 73.56 185.04 73.54C184.86 73.78 184.68 74.09 184.5 74.47C184.34 74.85 184.19 75.24 184.05 75.64C183.93 76.04 183.83 76.39 183.75 76.69H182.07H174.48C172.34 76.69 170.38 76.54 168.6 76.24C166.82 75.96 165.2 75.42 163.74 74.62C162.3 73.82 161.03 72.67 159.93 71.17C158.83 69.65 157.91 67.67 157.17 65.23L159.39 64.36ZM161.67 62.41L164.37 63.13C163.71 64.81 162.83 66.41 161.73 67.93C160.65 69.43 159.45 70.68 158.13 71.68C158.05 71.46 157.91 71.19 157.71 70.87C157.53 70.53 157.34 70.2 157.14 69.88C156.94 69.56 156.75 69.3 156.57 69.1C157.65 68.32 158.64 67.35 159.54 66.19C160.46 65.01 161.17 63.75 161.67 62.41ZM158.76 54.1L160.83 54.7C160.51 55.8 160.07 56.9 159.51 58C158.97 59.1 158.39 60.04 157.77 60.82C157.65 60.58 157.45 60.25 157.17 59.83C156.91 59.39 156.67 59.06 156.45 58.84C156.95 58.22 157.4 57.49 157.8 56.65C158.2 55.81 158.52 54.96 158.76 54.1ZM161.91 64.51H166.98V67.06H160.62L161.91 64.51ZM166.11 64.51H166.74L167.25 64.42L169.08 65.29C168.48 67.33 167.64 69.13 166.56 70.69C165.5 72.23 164.26 73.53 162.84 74.59C161.42 75.67 159.88 76.53 158.22 77.17C158.12 76.93 157.96 76.65 157.74 76.33C157.54 76.01 157.32 75.69 157.08 75.37C156.86 75.07 156.65 74.84 156.45 74.68C157.99 74.14 159.41 73.43 160.71 72.55C162.01 71.67 163.12 70.6 164.04 69.34C164.98 68.08 165.67 66.64 166.11 65.02V64.51ZM162.06 48.91H165.06V60.34H162.06V48.91ZM158.55 57.22L159.87 55.81C160.27 56.15 160.67 56.54 161.07 56.98C161.47 57.4 161.78 57.76 162 58.06L160.62 59.65C160.4 59.33 160.09 58.94 159.69 58.48C159.29 58.02 158.91 57.6 158.55 57.22ZM166.8 54.04L168.81 54.55C168.59 55.39 168.29 56.25 167.91 57.13C167.53 58.01 167.14 58.76 166.74 59.38C166.56 59.22 166.29 59.03 165.93 58.81C165.57 58.57 165.27 58.39 165.03 58.27C165.41 57.67 165.75 57 166.05 56.26C166.35 55.52 166.6 54.78 166.8 54.04ZM166.71 57.31L168.09 55.9C168.49 56.24 168.9 56.62 169.32 57.04C169.74 57.46 170.06 57.81 170.28 58.09L168.81 59.71C168.59 59.37 168.28 58.98 167.88 58.54C167.48 58.08 167.09 57.67 166.71 57.31ZM162.39 58.63L164.67 59.56C164.19 60.16 163.59 60.77 162.87 61.39C162.15 61.99 161.39 62.55 160.59 63.07C159.79 63.57 159 63.98 158.22 64.3C158 63.96 157.7 63.57 157.32 63.13C156.94 62.69 156.6 62.33 156.3 62.05C157.04 61.83 157.79 61.54 158.55 61.18C159.33 60.82 160.06 60.42 160.74 59.98C161.42 59.54 161.97 59.09 162.39 58.63ZM164.88 58.6C165.14 58.72 165.51 58.91 165.99 59.17C166.47 59.43 166.98 59.72 167.52 60.04C168.06 60.34 168.56 60.62 169.02 60.88C169.48 61.14 169.82 61.33 170.04 61.45L168.48 63.88C168.18 63.62 167.8 63.32 167.34 62.98C166.88 62.64 166.4 62.29 165.9 61.93C165.4 61.57 164.92 61.24 164.46 60.94C164 60.62 163.6 60.36 163.26 60.16L164.88 58.6Z" fill="#B65A0F"/>
<path d="M133.62 64.75L136.53 63.7899C136.91 64.7299 137.3 65.7499 137.7 66.8499C138.1 67.9499 138.45 69.0099 138.75 70.0299C139.07 71.0499 139.3 71.9599 139.44 72.7599L136.29 73.93C136.17 73.15 135.97 72.2399 135.69 71.1999C135.41 70.1399 135.09 69.05 134.73 67.93C134.37 66.79 134 65.73 133.62 64.75ZM128.79 49.7199L132 50.4099C131.7 51.9499 131.32 53.4799 130.86 54.9999C130.42 56.4999 129.91 57.8999 129.33 59.1999C128.75 60.4999 128.12 61.6499 127.44 62.6499C127.28 62.4299 127.04 62.1699 126.72 61.8699C126.42 61.5699 126.1 61.2699 125.76 60.9699C125.44 60.6499 125.16 60.3999 124.92 60.2199C125.54 59.3799 126.09 58.3999 126.57 57.2799C127.07 56.1599 127.5 54.9499 127.86 53.6499C128.24 52.3499 128.55 51.0399 128.79 49.7199ZM127.23 74.7699C127.17 74.5299 127.07 74.2099 126.93 73.8099C126.81 73.4099 126.68 72.9899 126.54 72.5499C126.4 72.1099 126.26 71.7399 126.12 71.4399C126.44 71.3399 126.72 71.0999 126.96 70.7199C127.2 70.3399 127.46 69.8099 127.74 69.1299C127.88 68.8099 128.07 68.2999 128.31 67.5999C128.57 66.8799 128.85 66.0299 129.15 65.0499C129.45 64.0699 129.73 63.0199 129.99 61.8999C130.27 60.7799 130.51 59.6599 130.71 58.5399L134.19 59.4099C133.83 60.9899 133.4 62.5899 132.9 64.2099C132.4 65.8099 131.87 67.3399 131.31 68.7999C130.77 70.2599 130.22 71.5799 129.66 72.7599V72.82C129.66 72.82 129.54 72.8899 129.3 73.0299C129.06 73.1499 128.77 73.32 128.43 73.54C128.11 73.74 127.83 73.9499 127.59 74.1699C127.35 74.3899 127.23 74.5899 127.23 74.7699ZM127.2 74.7699L126.99 72.0099L128.43 70.9599L137.64 69.2799C137.68 69.7199 137.76 70.2199 137.88 70.7799C138 71.3199 138.11 71.7599 138.21 72.0999C136.01 72.5399 134.23 72.9099 132.87 73.2099C131.51 73.4899 130.46 73.73 129.72 73.93C128.98 74.11 128.43 74.2599 128.07 74.3799C127.71 74.5199 127.42 74.6499 127.2 74.7699ZM133.02 50.7099L135.93 49.5699C136.47 50.6699 137.01 51.8499 137.55 53.1099C138.09 54.3499 138.56 55.5699 138.96 56.7699C139.38 57.9499 139.68 59.0099 139.86 59.9499L136.65 61.3299C136.49 60.4099 136.21 59.3399 135.81 58.1199C135.43 56.8999 135 55.6499 134.52 54.3699C134.04 53.0699 133.54 51.8499 133.02 50.7099ZM138.57 50.3199H153.27V53.5299H138.57V50.3199ZM143.04 62.2899V63.9099H148.83V62.2899H143.04ZM143.04 66.4599V68.0799H148.83V66.4599H143.04ZM143.04 58.1799V59.7699H148.83V58.1799H143.04ZM139.83 55.4799H152.16V70.7799H139.83V55.4799ZM144.54 52.4499L148.26 52.9599C147.8 53.8199 147.31 54.6699 146.79 55.5099C146.27 56.3299 145.8 57.0399 145.38 57.6399L142.56 57.0699C142.82 56.6299 143.07 56.1399 143.31 55.5999C143.55 55.0399 143.78 54.4899 144 53.9499C144.22 53.4099 144.4 52.9099 144.54 52.4499ZM142.77 70.7199L145.59 72.6999C144.83 73.5199 143.88 74.31 142.74 75.07C141.6 75.85 140.46 76.47 139.32 76.93C139.12 76.57 138.85 76.1399 138.51 75.6399C138.19 75.1399 137.87 74.7099 137.55 74.3499C138.19 74.0699 138.84 73.7299 139.5 73.3299C140.16 72.9299 140.78 72.5 141.36 72.04C141.94 71.56 142.41 71.1199 142.77 70.7199ZM146.61 72.8499L148.38 70.5099C148.98 70.8499 149.62 71.2499 150.3 71.7099C150.98 72.1499 151.64 72.5999 152.28 73.0599C152.92 73.4999 153.44 73.8999 153.84 74.2599L151.98 76.8999C151.6 76.5199 151.1 76.0799 150.48 75.5799C149.88 75.0999 149.24 74.6199 148.56 74.1399C147.88 73.6599 147.23 73.2299 146.61 72.8499Z" fill="#B65A0F"/>
<path d="M114.69 51.91H118.47V72.52C118.47 73.6 118.33 74.43 118.05 75.01C117.77 75.61 117.26 76.06 116.52 76.36C115.8 76.66 114.88 76.84 113.76 76.9C112.64 76.98 111.31 77.02 109.77 77.02C109.69 76.66 109.57 76.24 109.41 75.76C109.25 75.3 109.06 74.84 108.84 74.38C108.64 73.92 108.44 73.53 108.24 73.21C108.98 73.23 109.72 73.25 110.46 73.27C111.22 73.29 111.9 73.3 112.5 73.3C113.1 73.3 113.52 73.3 113.76 73.3C114.1 73.3 114.34 73.24 114.48 73.12C114.62 73 114.69 72.78 114.69 72.46V51.91ZM97.56 57.91H101.04V71.89H97.56V57.91ZM99.03 57.91H110.34V69.58H99.03V66.13H106.8V61.33H99.03V57.91ZM94.77 50.89H121.95V54.55H94.77V50.89Z" fill="#B65A0F"/>
<path d="M66.42 53.77H75.63V73.96H66.42V70.81H72.39V56.89H66.42V53.77ZM64.32 53.77H67.59V76.18H64.32V53.77ZM66.3 61.78H73.95V64.9H66.3V61.78ZM68.61 48.88L72.51 49.45C72.19 50.47 71.84 51.48 71.46 52.48C71.1 53.48 70.77 54.33 70.47 55.03L67.59 54.37C67.73 53.85 67.86 53.27 67.98 52.63C68.12 51.99 68.25 51.34 68.37 50.68C68.49 50.02 68.57 49.42 68.61 48.88ZM79.59 53.53H88.38V56.83H79.59V53.53ZM87.12 53.53H90.45C90.45 53.53 90.45 53.64 90.45 53.86C90.45 54.06 90.45 54.29 90.45 54.55C90.45 54.81 90.44 55.01 90.42 55.15C90.34 58.53 90.24 61.4 90.12 63.76C90.02 66.1 89.89 68.04 89.73 69.58C89.59 71.1 89.42 72.29 89.22 73.15C89.02 74.01 88.76 74.64 88.44 75.04C88.04 75.62 87.61 76.02 87.15 76.24C86.69 76.46 86.16 76.62 85.56 76.72C84.98 76.8 84.26 76.83 83.4 76.81C82.56 76.81 81.7 76.8 80.82 76.78C80.8 76.28 80.68 75.69 80.46 75.01C80.24 74.35 79.97 73.77 79.65 73.27C80.61 73.35 81.5 73.4 82.32 73.42C83.16 73.44 83.77 73.45 84.15 73.45C84.45 73.45 84.69 73.42 84.87 73.36C85.07 73.28 85.26 73.14 85.44 72.94C85.7 72.68 85.91 72.15 86.07 71.35C86.25 70.53 86.4 69.38 86.52 67.9C86.64 66.42 86.75 64.55 86.85 62.29C86.95 60.03 87.04 57.34 87.12 54.22V53.53ZM79.68 48.91L83.16 49.72C82.78 51.18 82.31 52.64 81.75 54.1C81.21 55.56 80.61 56.94 79.95 58.24C79.31 59.52 78.65 60.64 77.97 61.6C77.77 61.4 77.48 61.17 77.1 60.91C76.74 60.63 76.37 60.36 75.99 60.1C75.63 59.84 75.31 59.64 75.03 59.5C75.69 58.64 76.31 57.65 76.89 56.53C77.49 55.39 78.02 54.17 78.48 52.87C78.96 51.55 79.36 50.23 79.68 48.91ZM78.21 62.2L81.03 60.61C81.53 61.29 82.06 62.04 82.62 62.86C83.18 63.68 83.71 64.48 84.21 65.26C84.71 66.04 85.12 66.73 85.44 67.33L82.38 69.19C82.1 68.57 81.72 67.86 81.24 67.06C80.78 66.26 80.28 65.44 79.74 64.6C79.22 63.74 78.71 62.94 78.21 62.2Z" fill="#B65A0F"/>
<path d="M42.6 64.96H58.44V68.2H42.6V64.96ZM40.86 72.97H59.97V76.24H40.86V72.97ZM41.31 52.15H59.76V57.79H56.49V55.12H44.43V57.88H41.31V52.15ZM48.6 66.52H52.14V74.53H48.6V66.52ZM31.65 65.11C32.85 64.81 34.29 64.42 35.97 63.94C37.67 63.44 39.38 62.93 41.1 62.41L41.64 65.59C40.06 66.13 38.45 66.66 36.81 67.18C35.19 67.7 33.7 68.18 32.34 68.62L31.65 65.11ZM32.07 54.61H40.95V57.94H32.07V54.61ZM35.19 48.91H38.49V73.27C38.49 74.09 38.4 74.74 38.22 75.22C38.06 75.72 37.75 76.11 37.29 76.39C36.85 76.67 36.29 76.86 35.61 76.96C34.95 77.06 34.12 77.1 33.12 77.08C33.08 76.64 32.97 76.09 32.79 75.43C32.61 74.79 32.41 74.23 32.19 73.75C32.75 73.77 33.26 73.79 33.72 73.81C34.2 73.81 34.53 73.8 34.71 73.78C34.89 73.78 35.01 73.75 35.07 73.69C35.15 73.61 35.19 73.47 35.19 73.27V48.91ZM47.52 49.6L50.88 48.61C51.24 49.29 51.6 50.03 51.96 50.83C52.32 51.63 52.6 52.32 52.8 52.9L49.35 54.07C49.17 53.47 48.9 52.75 48.54 51.91C48.2 51.07 47.86 50.3 47.52 49.6ZM46.59 54.64H49.86C49.8 55.9 49.68 57.02 49.5 58C49.32 58.96 48.99 59.82 48.51 60.58C48.05 61.32 47.38 61.96 46.5 62.5C45.64 63.04 44.51 63.48 43.11 63.82C42.99 63.44 42.76 62.99 42.42 62.47C42.08 61.95 41.75 61.55 41.43 61.27C42.57 61.01 43.47 60.7 44.13 60.34C44.81 59.98 45.32 59.54 45.66 59.02C46.02 58.48 46.26 57.85 46.38 57.13C46.5 56.41 46.57 55.58 46.59 54.64ZM51.33 54.34H54.54V59.23C54.54 59.61 54.58 59.88 54.66 60.04C54.74 60.2 54.91 60.28 55.17 60.28C55.27 60.28 55.43 60.28 55.65 60.28C55.87 60.28 56.11 60.28 56.37 60.28C56.63 60.28 56.87 60.28 57.09 60.28C57.31 60.28 57.48 60.28 57.6 60.28C57.88 60.28 58.21 60.27 58.59 60.25C58.97 60.21 59.27 60.16 59.49 60.1C59.53 60.52 59.57 61 59.61 61.54C59.65 62.08 59.71 62.54 59.79 62.92C59.55 63.02 59.23 63.09 58.83 63.13C58.45 63.15 58.06 63.16 57.66 63.16C57.54 63.16 57.36 63.16 57.12 63.16C56.88 63.16 56.62 63.16 56.34 63.16C56.06 63.16 55.8 63.16 55.56 63.16C55.32 63.16 55.14 63.16 55.02 63.16C54.02 63.16 53.25 63.03 52.71 62.77C52.19 62.49 51.83 62.06 51.63 61.48C51.43 60.9 51.33 60.14 51.33 59.2V54.34Z" fill="#B65A0F"/>
<path d="M1.16998 62.05H28.29V65.71H1.16998V62.05ZM5.84998 49.24L9.65998 50.05C9.27998 51.49 8.80998 52.9 8.24998 54.28C7.70998 55.64 7.11998 56.92 6.47998 58.12C5.83998 59.3 5.15998 60.34 4.43998 61.24C4.17998 61.04 3.82998 60.82 3.38998 60.58C2.96998 60.32 2.53998 60.08 2.09998 59.86C1.65998 59.62 1.27998 59.44 0.959976 59.32C1.69998 58.54 2.37998 57.61 2.99998 56.53C3.61998 55.45 4.16998 54.29 4.64998 53.05C5.14998 51.79 5.54998 50.52 5.84998 49.24ZM6.71998 53.65H25.71V57.31H4.91998L6.71998 53.65ZM16.59 62.8C17.49 65.64 18.96 67.98 21 69.82C23.04 71.66 25.78 72.94 29.22 73.66C28.94 73.92 28.64 74.25 28.32 74.65C28.02 75.05 27.73 75.46 27.45 75.88C27.19 76.32 26.97 76.72 26.79 77.08C24.31 76.44 22.2 75.51 20.46 74.29C18.72 73.07 17.26 71.57 16.08 69.79C14.92 68.01 13.95 65.94 13.17 63.58L16.59 62.8ZM12.69 48.88H16.47V58.45C16.47 59.85 16.38 61.27 16.2 62.71C16.04 64.15 15.7 65.56 15.18 66.94C14.66 68.32 13.9 69.64 12.9 70.9C11.9 72.14 10.58 73.29 8.93998 74.35C7.31998 75.39 5.30998 76.28 2.90998 77.02C2.76998 76.72 2.55998 76.37 2.27998 75.97C2.01998 75.57 1.73998 75.17 1.43998 74.77C1.13998 74.39 0.859976 74.08 0.599976 73.84C2.75998 73.22 4.56998 72.47 6.02998 71.59C7.48998 70.71 8.65998 69.75 9.53998 68.71C10.44 67.67 11.11 66.58 11.55 65.44C12.01 64.28 12.31 63.11 12.45 61.93C12.61 60.75 12.69 59.58 12.69 58.42V48.88Z" fill="#B65A0F"/>
<path d="M143.13 9.46002H146.58V33.19H143.13V9.46002ZM136.35 12.13H153.09V14.92H136.35V12.13ZM135.45 31.75H153.72V34.57H135.45V31.75ZM137.16 27.61H152.58V30.37H137.16V27.61ZM150.96 7.15002L153.03 9.79002C151.95 10.01 150.77 10.2 149.49 10.36C148.21 10.5 146.89 10.62 145.53 10.72C144.17 10.82 142.8 10.9 141.42 10.96C140.04 11 138.72 11.03 137.46 11.05C137.42 10.67 137.32 10.22 137.16 9.70002C137 9.18002 136.84 8.74002 136.68 8.38002C137.92 8.34002 139.19 8.29002 140.49 8.23002C141.81 8.15002 143.1 8.06002 144.36 7.96002C145.62 7.86002 146.81 7.74002 147.93 7.60002C149.07 7.46002 150.08 7.31002 150.96 7.15002ZM140.46 22.27V23.77H149.34V22.27H140.46ZM140.46 18.64V20.14H149.34V18.64H140.46ZM137.34 16.15H152.61V26.26H137.34V16.15ZM130.08 9.70002H133.56V35.05H130.08V9.70002ZM125.76 15.34H136.77V18.67H125.76V15.34ZM130.26 16.69L132.36 17.59C132.08 18.67 131.74 19.79 131.34 20.95C130.94 22.11 130.5 23.26 130.02 24.4C129.54 25.52 129.03 26.58 128.49 27.58C127.95 28.58 127.39 29.45 126.81 30.19C126.63 29.67 126.37 29.09 126.03 28.45C125.71 27.79 125.41 27.23 125.13 26.77C125.65 26.17 126.16 25.47 126.66 24.67C127.18 23.85 127.67 22.98 128.13 22.06C128.59 21.14 129 20.22 129.36 19.3C129.72 18.38 130.02 17.51 130.26 16.69ZM134.73 7.21002L137.16 9.97002C136.14 10.35 135.02 10.7 133.8 11.02C132.58 11.34 131.33 11.62 130.05 11.86C128.79 12.08 127.58 12.27 126.42 12.43C126.34 12.03 126.2 11.57 126 11.05C125.8 10.51 125.6 10.05 125.4 9.67002C126.5 9.49002 127.62 9.28002 128.76 9.04002C129.92 8.78002 131.01 8.49002 132.03 8.17002C133.07 7.85002 133.97 7.53002 134.73 7.21002ZM133.5 19.51C133.68 19.65 133.95 19.91 134.31 20.29C134.69 20.65 135.09 21.05 135.51 21.49C135.95 21.93 136.34 22.34 136.68 22.72C137.02 23.08 137.27 23.34 137.43 23.5L135.36 26.35C135.18 25.97 134.94 25.54 134.64 25.06C134.36 24.58 134.05 24.08 133.71 23.56C133.39 23.04 133.07 22.55 132.75 22.09C132.43 21.61 132.15 21.22 131.91 20.92L133.5 19.51Z" fill="#B65A0F"/>
<path d="M94.47 18.73H122.25V22.66H94.47V18.73Z" fill="#B65A0F"/>
<path d="M71.88 8.22998H79.62V11.26H71.88V8.22998ZM71.91 15.22H79.74V18.22H71.91V15.22ZM71.88 22.33H80.01V25.36H71.88V22.33ZM78.33 8.22998H81.21C81.21 8.22998 81.21 8.33998 81.21 8.55999C81.21 8.75998 81.21 8.97998 81.21 9.21999C81.21 9.45998 81.2 9.64999 81.18 9.78999C81.18 13.11 81.17 16.01 81.15 18.49C81.13 20.95 81.1 23.06 81.06 24.82C81.04 26.58 81 28.04 80.94 29.2C80.88 30.36 80.8 31.27 80.7 31.93C80.6 32.59 80.47 33.06 80.31 33.34C80.05 33.84 79.77 34.19 79.47 34.39C79.19 34.59 78.85 34.73 78.45 34.81C78.07 34.91 77.65 34.97 77.19 34.99C76.73 35.01 76.24 35.01 75.72 34.99C75.7 34.53 75.62 34 75.48 33.4C75.34 32.8 75.15 32.28 74.91 31.84C75.31 31.86 75.67 31.88 75.99 31.9C76.33 31.9 76.61 31.9 76.83 31.9C77.03 31.92 77.19 31.88 77.31 31.78C77.43 31.68 77.55 31.51 77.67 31.27C77.79 31.01 77.89 30.46 77.97 29.62C78.05 28.76 78.11 27.49 78.15 25.81C78.19 24.13 78.22 21.92 78.24 19.18C78.28 16.44 78.31 13.07 78.33 9.06999V8.22998ZM73.8 9.81998H76.68V18.01C76.68 19.25 76.62 20.62 76.5 22.12C76.4 23.62 76.18 25.15 75.84 26.71C75.5 28.27 75.01 29.78 74.37 31.24C73.73 32.68 72.89 33.98 71.85 35.14C71.73 34.94 71.54 34.69 71.28 34.39C71.02 34.11 70.75 33.83 70.47 33.55C70.19 33.29 69.96 33.1 69.78 32.98C70.7 31.9 71.43 30.74 71.97 29.5C72.51 28.24 72.91 26.94 73.17 25.6C73.43 24.26 73.6 22.94 73.68 21.64C73.76 20.34 73.8 19.12 73.8 17.98V9.81998ZM82.44 8.22998H88.41V11.14H85.38V35.08H82.44V8.22998ZM87.87 8.22998H88.41L88.83 8.10999L91.05 9.36999C90.83 10.37 90.58 11.45 90.3 12.61C90.04 13.77 89.77 14.91 89.49 16.03C89.23 17.13 88.98 18.11 88.74 18.97C89.5 20.29 89.99 21.54 90.21 22.72C90.43 23.88 90.55 24.97 90.57 25.99C90.57 27.03 90.47 27.9 90.27 28.6C90.09 29.28 89.78 29.79 89.34 30.13C89.16 30.31 88.93 30.45 88.65 30.55C88.39 30.65 88.11 30.73 87.81 30.79C87.37 30.85 86.85 30.87 86.25 30.85C86.25 30.43 86.2 29.94 86.1 29.38C86 28.8 85.84 28.29 85.62 27.85C85.8 27.87 85.97 27.88 86.13 27.88C86.29 27.88 86.44 27.88 86.58 27.88C86.84 27.86 87.06 27.76 87.24 27.58C87.38 27.42 87.48 27.16 87.54 26.8C87.6 26.42 87.63 25.98 87.63 25.48C87.63 24.66 87.53 23.72 87.33 22.66C87.15 21.58 86.71 20.45 86.01 19.27C86.19 18.53 86.37 17.7 86.55 16.78C86.73 15.84 86.9 14.9 87.06 13.96C87.24 13 87.4 12.12 87.54 11.32C87.68 10.5 87.79 9.83999 87.87 9.33999V8.22998ZM65.55 9.54998H71.1V27.22H65.55V23.92H68.37V12.82H65.55V9.54998ZM64.05 9.54998H66.72V30.04H64.05V9.54998Z" fill="#B65A0F"/>
<path d="M32.67 19.72H59.25V22.87H32.67V19.72ZM46.11 25.12H57.33V28.24H46.11V25.12ZM44.43 21.34H48.09V32.44H44.43V21.34ZM39.81 26.11C40.37 27.57 41.15 28.67 42.15 29.41C43.15 30.13 44.35 30.61 45.75 30.85C47.17 31.09 48.75 31.22 50.49 31.24C50.83 31.24 51.3 31.24 51.9 31.24C52.52 31.24 53.21 31.24 53.97 31.24C54.73 31.24 55.49 31.24 56.25 31.24C57.03 31.22 57.76 31.21 58.44 31.21C59.12 31.19 59.68 31.17 60.12 31.15C59.94 31.43 59.77 31.77 59.61 32.17C59.45 32.57 59.3 32.98 59.16 33.4C59.04 33.84 58.95 34.24 58.89 34.6H57.09H50.31C48.57 34.6 47 34.5 45.6 34.3C44.22 34.1 42.98 33.73 41.88 33.19C40.78 32.67 39.81 31.92 38.97 30.94C38.15 29.94 37.43 28.66 36.81 27.1L39.81 26.11ZM37.2 23.5L40.77 24.01C40.29 26.49 39.5 28.67 38.4 30.55C37.32 32.41 35.96 33.93 34.32 35.11C34.14 34.89 33.88 34.62 33.54 34.3C33.22 33.98 32.88 33.66 32.52 33.34C32.18 33.02 31.87 32.77 31.59 32.59C33.13 31.65 34.36 30.4 35.28 28.84C36.2 27.28 36.84 25.5 37.2 23.5ZM38.94 14.32V15.82H52.71V14.32H38.94ZM38.94 10.48V11.95H52.71V10.48H38.94ZM35.46 7.90002H56.37V18.37H35.46V7.90002Z" fill="#B65A0F"/>
<path d="M13.26 7L16.8 7.81C16.38 9.37 15.87 10.92 15.27 12.46C14.67 13.98 14.01 15.41 13.29 16.75C12.59 18.07 11.84 19.23 11.04 20.23C10.82 20.01 10.53 19.75 10.17 19.45C9.83 19.15 9.47 18.86 9.09 18.58C8.73 18.28 8.41 18.04 8.13 17.86C8.91 17 9.62 15.99 10.26 14.83C10.9 13.67 11.47 12.42 11.97 11.08C12.49 9.74 12.92 8.38 13.26 7ZM12.42 20.32L15.93 21.04C15.65 22.32 15.29 23.58 14.85 24.82C14.43 26.04 13.96 27.2 13.44 28.3C12.92 29.38 12.38 30.33 11.82 31.15C11.6 30.95 11.3 30.73 10.92 30.49C10.54 30.23 10.15 29.99 9.75 29.77C9.37 29.53 9.04 29.34 8.76 29.2C9.62 28.14 10.36 26.81 10.98 25.21C11.6 23.61 12.08 21.98 12.42 20.32ZM13.92 12.28H26.25V15.61H12.6L13.92 12.28ZM17.37 13.75H20.94V31.06C20.94 31.9 20.85 32.59 20.67 33.13C20.49 33.67 20.12 34.09 19.56 34.39C19.04 34.67 18.41 34.86 17.67 34.96C16.95 35.06 16.1 35.11 15.12 35.11C15.06 34.57 14.9 33.95 14.64 33.25C14.4 32.55 14.15 31.96 13.89 31.48C14.53 31.5 15.13 31.51 15.69 31.51C16.27 31.51 16.66 31.51 16.86 31.51C17.04 31.51 17.17 31.48 17.25 31.42C17.33 31.34 17.37 31.2 17.37 31V13.75ZM22.02 21.1L25.23 20.02C25.77 21.06 26.26 22.17 26.7 23.35C27.14 24.51 27.52 25.66 27.84 26.8C28.16 27.92 28.39 28.93 28.53 29.83L25.08 31.03C24.96 30.15 24.75 29.13 24.45 27.97C24.17 26.81 23.82 25.64 23.4 24.46C22.98 23.26 22.52 22.14 22.02 21.1ZM25.26 12.28H25.74L26.31 12.16L28.86 12.64C28.68 13.86 28.47 15.12 28.23 16.42C27.99 17.7 27.76 18.79 27.54 19.69L24.48 19.12C24.56 18.58 24.65 17.95 24.75 17.23C24.85 16.51 24.95 15.76 25.05 14.98C25.15 14.18 25.22 13.43 25.26 12.73V12.28ZM6.84 7L10.23 8.08C9.59 9.76 8.83 11.46 7.95 13.18C7.07 14.88 6.12 16.5 5.1 18.04C4.08 19.56 3.02 20.89 1.92 22.03C1.82 21.73 1.65 21.35 1.41 20.89C1.19 20.41 0.95 19.93 0.69 19.45C0.43 18.97 0.2 18.58 0 18.28C0.9 17.36 1.77 16.3 2.61 15.1C3.47 13.9 4.26 12.61 4.98 11.23C5.72 9.85 6.34 8.44 6.84 7ZM3.96 15.31L7.38 11.89V11.92V35.02H3.96V15.31Z" fill="#B65A0F"/>
<defs>
<filter id="filter0_d_14_107" x="192.97" y="6.92077" width="34.2665" height="38.0116" filterUnits="userSpaceOnUse" color-interpolation-filters="sRGB">
<feFlood flood-opacity="0" result="BackgroundImageFix"/>
<feColorMatrix in="SourceAlpha" type="matrix" values="0 0 0 0 0 0 0 0 0 0 0 0 0 0 0 0 0 0 127 0" result="hardAlpha"/>
<feOffset/>
<feGaussianBlur stdDeviation="2.33216"/>
<feComposite in2="hardAlpha" operator="out"/>
<feColorMatrix type="matrix" values="0 0 0 0 1 0 0 0 0 1 0 0 0 0 1 0 0 0 0.1 0"/>
<feBlend mode="normal" in2="BackgroundImageFix" result="effect1_dropShadow_14_107"/>
<feBlend mode="normal" in="SourceGraphic" in2="effect1_dropShadow_14_107" result="shape"/>
</filter>
<filter id="filter1_d_14_107" x="167.44" y="6.92077" width="34.2665" height="38.0116" filterUnits="userSpaceOnUse" color-interpolation-filters="sRGB">
<feFlood flood-opacity="0" result="BackgroundImageFix"/>
<feColorMatrix in="SourceAlpha" type="matrix" values="0 0 0 0 0 0 0 0 0 0 0 0 0 0 0 0 0 0 127 0" result="hardAlpha"/>
<feOffset/>
<feGaussianBlur stdDeviation="2.33216"/>
<feComposite in2="hardAlpha" operator="out"/>
<feColorMatrix type="matrix" values="0 0 0 0 1 0 0 0 0 1 0 0 0 0 1 0 0 0 0.1 0"/>
<feBlend mode="normal" in2="BackgroundImageFix" result="effect1_dropShadow_14_107"/>
<feBlend mode="normal" in="SourceGraphic" in2="effect1_dropShadow_14_107" result="shape"/>
</filter>
<filter id="filter2_d_14_107" x="181.276" y="0.420645" width="32.1552" height="45.2439" filterUnits="userSpaceOnUse" color-interpolation-filters="sRGB">
<feFlood flood-opacity="0" result="BackgroundImageFix"/>
<feColorMatrix in="SourceAlpha" type="matrix" values="0 0 0 0 0 0 0 0 0 0 0 0 0 0 0 0 0 0 127 0" result="hardAlpha"/>
<feOffset/>
<feGaussianBlur stdDeviation="2.33216"/>
<feComposite in2="hardAlpha" operator="out"/>
<feColorMatrix type="matrix" values="0 0 0 0 1 0 0 0 0 1 0 0 0 0 1 0 0 0 0.1 0"/>
<feBlend mode="normal" in2="BackgroundImageFix" result="effect1_dropShadow_14_107"/>
<feBlend mode="normal" in="SourceGraphic" in2="effect1_dropShadow_14_107" result="shape"/>
</filter>
</defs>
</svg>
